<svg width="279" height="65" viewBox="0 0 279 65" fill="none" xmlns="http://www.w3.org/2000/svg">
<g clip-path="url(#clip0_7_3029)">
<path d="M88.1073 18.3269C88.2477 18.542 88.3693 18.8321 88.4722 19.1876C88.5751 19.5431 88.6312 19.9266 88.6312 20.3102C88.6312 21.0679 88.4722 21.6106 88.1448 21.9286C87.8267 22.2467 87.387 22.4057 86.8444 22.4057H80.7167V25.7081H87.1063C87.2654 25.9233 87.3964 26.204 87.4993 26.5595C87.6022 26.9056 87.6583 27.2798 87.6583 27.6727C87.6583 28.4118 87.4993 28.945 87.1812 29.2631C86.8631 29.5812 86.4234 29.7402 85.8808 29.7402H80.7729V35.896C80.5577 35.9521 80.2209 36.0082 79.7625 36.0737C79.3041 36.1298 78.855 36.1579 78.406 36.1579C77.9569 36.1579 77.564 36.1205 77.2272 36.055C76.8905 35.9895 76.6004 35.8679 76.3666 35.6901C76.1327 35.5124 75.9549 35.2692 75.8427 34.9604C75.7304 34.6517 75.6649 34.2401 75.6649 33.7349V21.0399C75.6649 20.2073 75.9082 19.5431 76.3946 19.0566C76.8811 18.5701 77.5453 18.3269 78.3779 18.3269H88.098H88.1073Z" fill="#E1251B"/>
<path d="M90.8765 21.0492C90.8765 20.2166 91.1198 19.5524 91.6062 19.0659C92.0927 18.5794 92.7569 18.3362 93.5896 18.3362H103.225C103.356 18.5514 103.487 18.832 103.59 19.1875C103.693 19.5337 103.749 19.9079 103.749 20.3008C103.749 21.0399 103.59 21.5638 103.263 21.8725C102.945 22.1812 102.524 22.3402 101.991 22.3402H95.8348V25.0533H102.402C102.542 25.2684 102.664 25.5491 102.767 25.8859C102.87 26.2227 102.926 26.5875 102.926 26.9804C102.926 27.7195 102.767 28.2434 102.458 28.5521C102.15 28.8608 101.729 29.0199 101.205 29.0199H95.8348V32.0884H103.338C103.478 32.3035 103.6 32.5842 103.703 32.9397C103.805 33.2952 103.862 33.66 103.862 34.053C103.862 34.792 103.703 35.3253 103.375 35.6433C103.048 35.9614 102.636 36.1205 102.103 36.1205H93.5802C92.7476 36.1205 92.0834 35.8772 91.5969 35.3908C91.1104 34.9043 90.8672 34.2401 90.8672 33.4075V21.0586L90.8765 21.0492Z" fill="#E1251B"/>
<path d="M122.404 35.9053C122.188 35.9614 121.852 36.0176 121.393 36.083C120.935 36.1392 120.486 36.1672 120.037 36.1672C119.588 36.1672 119.195 36.1298 118.858 36.0643C118.521 35.9988 118.231 35.8772 117.997 35.6995C117.763 35.5217 117.586 35.2785 117.473 34.9698C117.361 34.6611 117.296 34.2494 117.296 33.7442V29.1883H111.692V35.9053C111.477 35.9614 111.14 36.0176 110.681 36.083C110.223 36.1392 109.774 36.1672 109.325 36.1672C108.876 36.1672 108.483 36.1298 108.146 36.0643C107.809 35.9988 107.519 35.8772 107.286 35.6995C107.052 35.5217 106.874 35.2785 106.762 34.9698C106.649 34.6611 106.584 34.2494 106.584 33.7442V18.3269C106.799 18.2894 107.136 18.2333 107.604 18.1678C108.071 18.1023 108.52 18.0649 108.951 18.0649C109.381 18.0649 109.793 18.1023 110.129 18.1678C110.466 18.2333 110.756 18.3549 110.99 18.5327C111.224 18.7104 111.402 18.9537 111.514 19.2624C111.626 19.5711 111.692 19.9827 111.692 20.4879V25.1562H117.296V18.3269C117.511 18.2894 117.848 18.2333 118.315 18.1678C118.783 18.1023 119.232 18.0649 119.653 18.0649C120.074 18.0649 120.495 18.1023 120.832 18.1678C121.169 18.2333 121.459 18.3549 121.693 18.5327C121.926 18.7104 122.104 18.9537 122.216 19.2624C122.329 19.5711 122.394 19.9827 122.394 20.4879V35.8959L122.404 35.9053Z" fill="#E1251B"/>
<path d="M138.139 31.6674C137.886 31.8826 137.559 32.051 137.157 32.1819C136.754 32.3129 136.296 32.369 135.772 32.369C135.071 32.369 134.49 32.2848 134.032 32.1071C133.574 31.9293 133.274 31.63 133.143 31.1996C132.601 29.4876 132.152 28.1031 131.796 27.0366C131.45 25.9794 131.169 25.0439 130.982 24.2487H130.833C130.776 25.3994 130.73 26.4472 130.702 27.3827C130.674 28.3276 130.655 29.2444 130.645 30.1425C130.636 31.0406 130.617 31.9387 130.589 32.8555C130.561 33.7723 130.515 34.7827 130.458 35.8959C130.206 35.9895 129.878 36.0737 129.467 36.1485C129.055 36.214 128.653 36.2514 128.241 36.2514C127.381 36.2514 126.716 36.1111 126.239 35.8398C125.762 35.5685 125.528 35.0727 125.528 34.3523L126.37 19.4682C126.529 19.2156 126.866 18.9443 127.39 18.6543C127.914 18.3643 128.653 18.2146 129.607 18.2146C130.636 18.2146 131.45 18.3736 132.03 18.7011C132.61 19.0191 133.04 19.543 133.312 20.2634C133.489 20.7312 133.677 21.2644 133.882 21.8725C134.088 22.4806 134.294 23.098 134.5 23.7435C134.706 24.389 134.902 25.0252 135.099 25.652C135.295 26.2881 135.463 26.8588 135.622 27.364H135.772C136.24 25.7268 136.708 24.1458 137.175 22.6209C137.643 21.096 138.074 19.8143 138.457 18.7853C138.747 18.6262 139.121 18.4953 139.58 18.3923C140.038 18.2894 140.553 18.2333 141.114 18.2333C142.068 18.2333 142.845 18.3736 143.453 18.6543C144.061 18.935 144.407 19.3372 144.501 19.8611C144.575 20.254 144.66 20.8528 144.753 21.6573C144.847 22.4619 144.931 23.3787 145.034 24.389C145.127 25.3994 145.23 26.4753 145.324 27.5979C145.417 28.7299 145.511 29.8151 145.604 30.8535C145.689 31.8919 145.764 32.8462 145.82 33.7162C145.876 34.5862 145.913 35.2504 145.932 35.7182C145.604 35.9147 145.258 36.055 144.893 36.1392C144.529 36.2234 144.07 36.2702 143.509 36.2702C142.77 36.2702 142.143 36.1392 141.638 35.8866C141.133 35.634 140.861 35.1382 140.824 34.3991C140.712 32.2755 140.637 30.367 140.609 28.6737C140.581 26.9804 140.534 25.5584 140.478 24.4077H140.328C140.132 25.1655 139.851 26.1198 139.486 27.2704C139.112 28.4211 138.672 29.8899 138.139 31.6767V31.6674Z" fill="#E1251B"/>
<path d="M148.645 13.9767C148.645 13.2563 148.879 12.6576 149.356 12.1711C149.833 11.6847 150.46 11.4414 151.236 11.4414C152.05 11.4414 152.705 11.6847 153.182 12.1711C153.659 12.6576 153.893 13.2657 153.893 13.9767C153.893 14.6877 153.659 15.3051 153.182 15.7823C152.705 16.2687 152.06 16.512 151.236 16.512C150.413 16.512 149.833 16.2687 149.356 15.7823C148.879 15.2958 148.645 14.697 148.645 13.9767ZM153.987 35.896C153.772 35.9521 153.435 36.0082 152.976 36.0737C152.518 36.1298 152.069 36.1579 151.62 36.1579C151.171 36.1579 150.778 36.1205 150.441 36.055C150.104 35.9895 149.814 35.8679 149.58 35.6901C149.347 35.5124 149.169 35.2692 149.057 34.9604C148.944 34.6517 148.879 34.2401 148.879 33.7349V18.3269C149.094 18.2895 149.431 18.2333 149.898 18.1678C150.366 18.1023 150.815 18.0649 151.246 18.0649C151.676 18.0649 152.088 18.1023 152.424 18.1678C152.761 18.2333 153.051 18.3549 153.285 18.5327C153.519 18.7104 153.697 18.9537 153.809 19.2624C153.921 19.5711 153.987 19.9827 153.987 20.4879V35.896Z" fill="#E1251B"/>
<path d="M163.043 21.0492C163.043 20.2166 163.286 19.5524 163.772 19.0659C164.259 18.5794 164.923 18.3362 165.756 18.3362H175.391C175.522 18.5514 175.653 18.832 175.756 19.1875C175.859 19.5337 175.915 19.9079 175.915 20.3008C175.915 21.0399 175.756 21.5638 175.429 21.8725C175.111 22.1812 174.69 22.3402 174.157 22.3402H168.001V25.0533H174.568C174.709 25.2684 174.83 25.5491 174.933 25.8859C175.036 26.2227 175.092 26.5875 175.092 26.9804C175.092 27.7195 174.933 28.2434 174.624 28.5521C174.316 28.8608 173.895 29.0199 173.371 29.0199H168.001V32.0884H175.504C175.644 32.3035 175.766 32.5842 175.869 32.9397C175.971 33.2952 176.028 33.66 176.028 34.053C176.028 34.792 175.869 35.3253 175.541 35.6433C175.214 35.9614 174.802 36.1205 174.269 36.1205H165.746C164.914 36.1205 164.249 35.8772 163.763 35.3908C163.276 34.9043 163.033 34.2401 163.033 33.4075V21.0586L163.043 21.0492Z" fill="#E1251B"/>
<path d="M183.82 30.3015V35.9053C183.605 35.9614 183.269 36.0176 182.81 36.083C182.352 36.1392 181.903 36.1672 181.454 36.1672C181.005 36.1672 180.612 36.1298 180.275 36.0643C179.938 35.9988 179.648 35.8772 179.433 35.6995C179.208 35.5217 179.04 35.2785 178.918 34.9698C178.806 34.661 178.741 34.2494 178.741 33.7442V19.9921C178.741 19.5804 178.853 19.2717 179.077 19.0472C179.302 18.8227 179.611 18.6449 179.994 18.5046C180.658 18.2707 181.426 18.1023 182.296 17.9901C183.166 17.8778 184.101 17.831 185.102 17.831C187.787 17.831 189.808 18.3923 191.174 19.5243C192.54 20.6563 193.213 22.1812 193.213 24.1084C193.213 25.3152 192.904 26.3443 192.278 27.2049C191.651 28.0656 190.912 28.7205 190.06 29.1882C190.762 30.1425 191.454 31.0406 192.137 31.8732C192.82 32.7058 193.353 33.4729 193.746 34.1465C193.55 34.8294 193.194 35.3533 192.68 35.7088C192.165 36.0643 191.585 36.2514 190.94 36.2514C190.509 36.2514 190.145 36.2047 189.827 36.1017C189.518 36.0082 189.246 35.8679 189.013 35.6901C188.779 35.5124 188.564 35.2972 188.367 35.0446C188.171 34.792 187.984 34.5207 187.815 34.2307L185.364 30.2922H183.82V30.3015ZM185.654 26.4191C186.393 26.4191 186.983 26.232 187.404 25.8484C187.834 25.4649 188.049 24.9129 188.049 24.1739C188.049 23.4348 187.806 22.8735 187.338 22.4993C186.861 22.1157 186.103 21.9286 185.074 21.9286C184.784 21.9286 184.55 21.938 184.372 21.9567C184.195 21.9754 183.998 22.0034 183.792 22.0409V26.4191H185.663H185.654Z" fill="#E1251B"/>
<path d="M195.122 27.1488C195.122 25.6333 195.355 24.2861 195.833 23.1167C196.31 21.9473 196.965 20.9744 197.788 20.1792C198.611 19.3934 199.584 18.7946 200.707 18.383C201.829 17.9714 203.036 17.7656 204.336 17.7656C205.637 17.7656 206.853 17.9714 207.966 18.383C209.08 18.7946 210.062 19.3934 210.904 20.1792C211.746 20.965 212.401 21.9473 212.878 23.1167C213.355 24.2861 213.589 25.6239 213.589 27.1488C213.589 28.6737 213.355 30.0115 212.887 31.1903C212.419 32.369 211.774 33.3513 210.941 34.1372C210.109 34.923 209.136 35.5218 208.004 35.9334C206.872 36.345 205.646 36.5508 204.327 36.5508C203.008 36.5508 201.773 36.345 200.651 35.924C199.528 35.503 198.546 34.895 197.732 34.0998C196.918 33.3046 196.272 32.3223 195.805 31.1529C195.337 29.9835 195.103 28.655 195.103 27.1582L195.122 27.1488ZM200.379 27.1488C200.379 28.917 200.735 30.2454 201.455 31.1154C202.175 31.9948 203.139 32.4252 204.346 32.4252C205.553 32.4252 206.544 31.9855 207.265 31.1154C207.985 30.2361 208.35 28.917 208.35 27.1488C208.35 25.3807 207.994 24.0803 207.283 23.2103C206.572 22.3309 205.609 21.9006 204.383 21.9006C203.158 21.9006 202.213 22.3309 201.483 23.2009C200.753 24.071 200.389 25.3901 200.389 27.1582L200.379 27.1488Z" fill="#E1251B"/>
<path d="M232.252 33.1268C232.252 33.7255 232.14 34.1746 231.934 34.474C231.719 34.764 231.382 35.0446 230.915 35.3159C230.643 35.475 230.297 35.6246 229.895 35.765C229.483 35.9147 229.034 36.0363 228.557 36.1485C228.071 36.2514 227.556 36.3356 227.023 36.3918C226.49 36.4479 225.956 36.476 225.432 36.476C224.029 36.476 222.719 36.2889 221.494 35.9053C220.268 35.5217 219.202 34.9511 218.294 34.1839C217.387 33.4168 216.676 32.4532 216.152 31.3119C215.628 30.1706 215.366 28.8328 215.366 27.3079C215.366 25.7081 215.656 24.3236 216.227 23.1354C216.798 21.9473 217.555 20.965 218.5 20.1698C219.445 19.3746 220.521 18.7946 221.737 18.4017C222.953 18.0088 224.207 17.8217 225.489 17.8217C227.341 17.8217 228.8 18.121 229.886 18.7104C230.971 19.2998 231.504 20.0763 231.504 21.0305C231.504 21.5357 231.373 21.9754 231.12 22.3402C230.868 22.7145 230.578 23.0045 230.241 23.2196C229.755 22.9296 229.146 22.6396 228.417 22.359C227.687 22.0783 226.864 21.938 225.947 21.938C224.31 21.938 223.009 22.4057 222.046 23.3413C221.082 24.2768 220.605 25.5678 220.605 27.2237C220.605 28.1218 220.736 28.8889 220.998 29.5438C221.26 30.1986 221.616 30.7319 222.065 31.1529C222.514 31.5738 223.028 31.8826 223.608 32.0884C224.188 32.2942 224.815 32.3971 225.479 32.3971C225.91 32.3971 226.284 32.3597 226.621 32.2848C226.948 32.21 227.201 32.1164 227.378 32.0229V29.2818H224.254C224.141 29.0666 224.02 28.786 223.917 28.4305C223.814 28.0843 223.758 27.7101 223.758 27.3172C223.758 26.6156 223.917 26.1104 224.244 25.8017C224.562 25.493 224.974 25.3339 225.489 25.3339H230.419C230.999 25.3339 231.457 25.493 231.775 25.811C232.093 26.1291 232.262 26.5875 232.262 27.1675V33.1268H232.252ZM224.572 16.1377C222.935 16.1377 221.681 15.8384 220.802 15.249C219.922 14.6596 219.492 13.9206 219.492 13.0412C219.492 12.536 219.679 12.0589 220.063 11.6098C220.446 11.1608 221.026 10.9362 221.831 10.9362H222.093C222.167 10.9362 222.261 10.9456 222.355 10.9643C222.448 11.3947 222.691 11.7502 223.084 12.0402C223.477 12.3302 223.973 12.4799 224.572 12.4799C225.171 12.4799 225.666 12.3302 226.05 12.0402C226.433 11.7502 226.677 11.3853 226.789 10.9643C226.883 10.9456 226.976 10.9362 227.051 10.9362H227.313C228.108 10.9362 228.697 11.1608 229.081 11.6098C229.465 12.0589 229.652 12.536 229.652 13.0412C229.652 13.9206 229.212 14.6503 228.342 15.249C227.463 15.8384 226.209 16.1377 224.572 16.1377Z" fill="#E1251B"/>
<path d="M238.034 36.1111C237.201 36.1111 236.537 35.8679 236.051 35.3814C235.564 34.895 235.321 34.2307 235.321 33.3981V18.2988C235.536 18.2614 235.873 18.2053 236.341 18.1398C236.808 18.0743 237.257 18.0369 237.688 18.0369C238.118 18.0369 238.53 18.0743 238.867 18.1398C239.203 18.2053 239.493 18.3269 239.727 18.5046C239.961 18.6824 240.139 18.9256 240.251 19.2343C240.363 19.5431 240.429 19.9547 240.429 20.4599V31.9948H247.118C247.258 32.21 247.38 32.5 247.501 32.8555C247.614 33.2204 247.679 33.5946 247.679 33.9781C247.679 34.7546 247.511 35.3066 247.183 35.6247C246.856 35.9427 246.416 36.1018 245.874 36.1018H238.053L238.034 36.1111Z" fill="#E1251B"/>
<path d="M265.379 29.4783C265.379 30.5261 265.201 31.4896 264.837 32.3503C264.472 33.211 263.957 33.9594 263.274 34.5675C262.591 35.1849 261.768 35.6527 260.795 35.9801C259.822 36.3076 258.718 36.476 257.493 36.476C256.267 36.476 255.163 36.3076 254.19 35.9801C253.217 35.6527 252.394 35.1756 251.711 34.5675C251.028 33.9501 250.504 33.211 250.149 32.3503C249.793 31.4896 249.606 30.5261 249.606 29.4783V18.3269C249.821 18.2894 250.158 18.2333 250.626 18.1678C251.094 18.1023 251.543 18.0649 251.973 18.0649C252.404 18.0649 252.815 18.1023 253.152 18.1678C253.489 18.2333 253.779 18.3549 254.013 18.5327C254.246 18.7104 254.424 18.9537 254.537 19.2624C254.649 19.5711 254.714 19.9827 254.714 20.4879V29.3941C254.714 30.3296 254.976 31.0593 255.491 31.5832C256.005 32.1071 256.669 32.369 257.493 32.369C258.316 32.369 258.999 32.1071 259.504 31.5832C260.009 31.0593 260.262 30.3296 260.262 29.3941V18.3269C260.477 18.2894 260.814 18.2333 261.282 18.1678C261.749 18.1023 262.198 18.0649 262.629 18.0649C263.059 18.0649 263.471 18.1023 263.808 18.1678C264.144 18.2333 264.434 18.3549 264.668 18.5327C264.902 18.7104 265.08 18.9537 265.192 19.2624C265.304 19.5711 265.37 19.9827 265.37 20.4879V29.4783H265.379Z" fill="#E1251B"/>
<path d="M14.0703 6.3709C14.5006 6.04347 14.7345 5.77217 14.5941 5.76281C14.4632 5.75346 14.0235 5.98734 13.6118 6.29606C13.2002 6.60478 12.957 6.87608 13.0692 6.90415C13.1909 6.93222 13.6306 6.68898 14.0703 6.3709Z" fill="#E1251B"/>
<path d="M18.3923 3.56435C18.832 3.32111 19.0191 3.15272 18.832 3.17143C18.6543 3.19014 18.1678 3.39596 17.7468 3.62048C17.3258 3.85436 17.1107 4.03211 17.279 4.02276C17.4474 4.0134 17.9526 3.80759 18.3923 3.56435Z" fill="#E1251B"/>
<path d="M21.4796 1.9646C21.6947 1.92718 22.2186 1.76814 22.6396 1.61846C23.0512 1.46877 23.1916 1.37522 22.967 1.422C22.9483 1.422 22.9296 1.422 22.9109 1.43135C22.4244 1.58104 21.9473 1.74008 21.4609 1.91782C21.3579 1.9646 21.3579 1.99267 21.4796 1.9646Z" fill="#E1251B"/>
<path d="M14.4444 7.70869C14.697 7.84901 15.38 7.58707 15.9787 7.12866C16.5681 6.67961 16.8207 6.23056 16.54 6.1183C16.2781 6.01539 15.6045 6.27734 15.0432 6.69832C14.4819 7.12866 14.2106 7.57771 14.4444 7.70869Z" fill="#E1251B"/>
<path d="M19.1688 4.36889C19.4869 4.45309 20.2259 4.23792 20.8247 3.90113C21.414 3.56434 21.6011 3.25562 21.2644 3.19014C20.9369 3.134 20.2259 3.33982 19.6646 3.64854C19.0939 3.96662 18.8694 4.28469 19.1688 4.35954V4.36889Z" fill="#E1251B"/>
<path d="M25.4836 1.67458C26.0262 1.46876 26.1385 1.2723 25.7643 1.24424C25.3995 1.21617 24.6885 1.3565 24.1646 1.55296C23.6313 1.75877 23.4723 1.94588 23.8184 1.99265C24.1833 2.03008 24.9317 1.88975 25.4836 1.67458Z" fill="#E1251B"/>
<path d="M29.6654 0.430352C30.1332 0.3368 30.1799 0.243248 29.7777 0.233892C29.3847 0.224537 28.7112 0.280669 28.2434 0.374221C27.7663 0.467773 27.6821 0.561325 28.0657 0.57068C28.4586 0.58939 29.1883 0.523904 29.6654 0.420997V0.430352Z" fill="#E1251B"/>
<path d="M31.7516 0.0280656C31.9574 0.0280656 32.2287 0.0280656 32.5 0.0280656C32.7713 0.0280656 33.0426 0.0280656 33.2485 0.0280656C33.4823 0.0280656 33.5385 0.0561313 33.4917 0.0187104C33.1549 0 32.8275 0 32.5 0C32.1726 0 31.8358 0 31.5084 0.0187104C31.4523 0.0561313 31.5177 0.0187104 31.7516 0.0280656Z" fill="#E1251B"/>
<path d="M16.7458 9.46747C17.1949 9.78555 18.1959 9.55167 18.9724 8.93422C19.7395 8.32614 19.964 7.61514 19.4775 7.33448C19.0191 7.07254 18.0555 7.31577 17.3165 7.87709C16.5774 8.44775 16.3155 9.15875 16.7458 9.46747Z" fill="#E1251B"/>
<path d="M22.4244 4.41567C21.6947 4.84601 21.4983 5.37925 21.9847 5.61313C22.5086 5.85637 23.5471 5.67862 24.3142 5.22022C25.0532 4.77117 25.2029 4.23792 24.6603 4.02275C24.1364 3.82629 23.1448 3.99468 22.4338 4.41567H22.4244Z" fill="#E1251B"/>
<path d="M26.9992 2.84399C27.5605 3.0311 28.5896 2.93755 29.2725 2.64753C29.9367 2.36688 29.9929 2.00203 29.4128 1.84299C28.8609 1.68395 27.8973 1.76815 27.2424 2.03009C26.5782 2.30139 26.4566 2.66625 26.9992 2.84399Z" fill="#E1251B"/>
<path d="M32.5 1.28165C32.8742 1.28165 33.2391 1.24423 33.5291 1.16939C34.0904 1.02906 34.0623 0.813893 33.4916 0.68292C33.2203 0.626788 32.8648 0.589368 32.5094 0.598723C32.1539 0.598723 31.7984 0.626788 31.5271 0.68292C30.9564 0.804537 30.9283 1.02906 31.4896 1.16939C31.7703 1.24423 32.1445 1.28165 32.5187 1.28165H32.5Z" fill="#E1251B"/>
<path d="M20.1418 12.4612C20.8715 13.0505 22.2561 12.8821 23.2384 12.0682C24.202 11.273 24.3516 10.1878 23.5939 9.65459C22.8642 9.14941 21.5357 9.33651 20.6096 10.0756C19.674 10.8333 19.4589 11.8998 20.1418 12.4612Z" fill="#E1251B"/>
<path d="M26.1104 6.14637C25.203 6.71704 25.072 7.55901 25.811 8.03613C26.5969 8.53195 28.0002 8.42904 28.9263 7.8116C29.8244 7.21287 29.8899 6.36154 29.076 5.91249C28.3089 5.48215 26.9804 5.58506 26.1011 6.13702L26.1104 6.14637Z" fill="#E1251B"/>
<path d="M28.8327 13.2563C27.813 12.4424 26.101 12.536 24.9877 13.4715C23.8557 14.4257 23.7341 15.9132 24.7164 16.802C25.7455 17.7188 27.5323 17.6439 28.7017 16.6242C29.8337 15.6232 29.8898 14.117 28.8327 13.2657V13.2563Z" fill="#E1251B"/>
<path d="M32.5 23.3132C33.3045 23.2758 34.0997 22.967 34.7171 22.387C35.9895 21.1708 35.9614 19.2343 34.661 18.0649C34.0623 17.5223 33.2858 17.2417 32.5 17.2136C31.7141 17.2417 30.947 17.5223 30.3389 18.0649C29.0385 19.2343 29.0105 21.1708 30.2828 22.387C30.9002 22.967 31.6954 23.2758 32.5 23.3132Z" fill="#E1251B"/>
<path d="M55.2893 9.67329C54.9151 9.29908 54.5502 9.04649 54.466 9.10262C54.3818 9.16811 54.6344 9.53296 55.0273 9.91652C55.0273 9.91652 55.0367 9.92588 55.046 9.93523C55.046 9.93523 55.0554 9.94459 55.0648 9.95394C55.4577 10.3469 55.8225 10.5995 55.8787 10.5153C55.9348 10.4404 55.6822 10.0662 55.308 9.692C55.308 9.692 55.2986 9.692 55.2893 9.68264C55.2893 9.68264 55.2893 9.67329 55.2799 9.66393L55.2893 9.67329Z" fill="#E1251B"/>
<path d="M51.9307 6.91349C52.043 6.88542 51.7998 6.61412 51.3881 6.3054C50.9765 5.99668 50.5368 5.7628 50.4058 5.77215C50.2655 5.78151 50.4994 6.05281 50.9297 6.38024C51.3601 6.70767 51.8091 6.94155 51.9307 6.91349Z" fill="#E1251B"/>
<path d="M47.7209 4.03209C47.8893 4.04145 47.6741 3.8637 47.2531 3.62982C46.8321 3.40529 46.355 3.19948 46.1679 3.18077C45.9808 3.16206 46.1679 3.33045 46.6076 3.57369C47.0473 3.81692 47.5431 4.02274 47.7209 4.03209Z" fill="#E1251B"/>
<path d="M43.5204 1.9646C43.642 1.98331 43.6327 1.9646 43.5391 1.91782C43.062 1.74943 42.5755 1.58104 42.0891 1.43135C42.0703 1.43135 42.0516 1.43135 42.0329 1.422C41.799 1.37522 41.9487 1.46877 42.3604 1.61846C42.7813 1.76814 43.3052 1.92718 43.5204 1.9646Z" fill="#E1251B"/>
<path d="M53.1002 9.91651C52.885 10.0943 53.1657 10.6743 53.7083 11.2169C53.7177 11.2262 53.7364 11.2356 53.7457 11.2543C53.7551 11.2637 53.7644 11.2824 53.7831 11.2917C54.3257 11.8343 54.9058 12.115 55.0835 11.8998C55.2426 11.7034 54.9619 11.1233 54.4567 10.6088C54.4474 10.5994 54.438 10.5901 54.4287 10.5807C54.4193 10.5714 54.4099 10.562 54.4006 10.5527C53.8861 10.0381 53.306 9.75747 53.1096 9.92587L53.1002 9.91651Z" fill="#E1251B"/>
<path d="M50.5556 7.70869C50.7894 7.57771 50.5275 7.12866 49.9568 6.69832C49.3955 6.27734 48.7313 6.01539 48.46 6.1183C48.1793 6.23056 48.4319 6.67961 49.0213 7.12866C49.62 7.58707 50.303 7.83966 50.5556 7.70869Z" fill="#E1251B"/>
<path d="M43.7356 3.19949C43.3988 3.25562 43.586 3.5737 44.1753 3.91049C44.7647 4.24728 45.5131 4.46245 45.8312 4.37825C46.1306 4.30341 45.906 3.98533 45.3354 3.66725C44.7741 3.35853 44.0631 3.15272 43.7356 3.20885V3.19949Z" fill="#E1251B"/>
<path d="M41.1816 1.99265C41.5277 1.95523 41.3687 1.75877 40.8355 1.55296C40.3116 1.3565 39.6006 1.21617 39.2357 1.24424C38.8521 1.2723 38.9738 1.45941 39.5164 1.67458C40.0683 1.88975 40.8167 2.03008 41.1816 1.99265Z" fill="#E1251B"/>
<path d="M36.9343 0.580018C37.3179 0.561308 37.2337 0.477111 36.7566 0.383559C36.2888 0.290007 35.6152 0.233876 35.2223 0.243231C34.82 0.252586 34.8668 0.346138 35.3346 0.43969C35.8211 0.542598 36.5414 0.608084 36.9343 0.589374V0.580018Z" fill="#E1251B"/>
<path d="M50.7146 11.6379C50.303 12.0027 50.5649 12.8821 51.2853 13.6025C51.304 13.6212 51.3227 13.6399 51.3414 13.6586C51.3601 13.6773 51.3788 13.696 51.3975 13.7147C52.1179 14.4445 52.9973 14.697 53.3621 14.2854C53.6989 13.9019 53.4276 13.0318 52.7447 12.3395C52.726 12.3208 52.7166 12.3115 52.6979 12.2928C52.6792 12.274 52.6698 12.2647 52.6511 12.246C51.9682 11.5631 51.0982 11.2918 50.7052 11.6285L50.7146 11.6379Z" fill="#E1251B"/>
<path d="M45.5224 7.3345C45.036 7.61516 45.2605 8.32615 46.0276 8.93424C46.8041 9.55168 47.8051 9.78556 48.2542 9.46749C48.6752 9.16812 48.4226 8.45712 47.6835 7.8771C46.9538 7.30643 45.9902 7.0632 45.5224 7.3345Z" fill="#E1251B"/>
<path d="M40.6858 5.22022C41.4436 5.67862 42.4914 5.85637 43.0153 5.61313C43.5111 5.37925 43.3053 4.84601 42.5756 4.41567C41.8552 3.99468 40.8636 3.82629 40.3491 4.02275C39.8065 4.23792 39.9468 4.77117 40.6952 5.22022H40.6858Z" fill="#E1251B"/>
<path d="M35.7181 2.64753C36.4011 2.93755 37.4301 3.0311 37.9914 2.84399C38.534 2.66625 38.4124 2.30139 37.7482 2.03009C37.0933 1.76815 36.1391 1.68395 35.5778 1.84299C34.9978 2.00203 35.0539 2.36688 35.7181 2.64753Z" fill="#E1251B"/>
<path d="M47.0942 14.4819C46.4019 15.118 46.5983 16.3903 47.5432 17.3258C47.5713 17.3539 47.59 17.3726 47.6181 17.3913C47.6368 17.4194 47.6648 17.4381 47.6835 17.4662C48.6191 18.4017 49.8914 18.5981 50.5275 17.9152C51.1263 17.2604 50.8924 16.0161 50.013 15.1274C49.9943 15.1087 49.9756 15.0899 49.9475 15.0712C49.9288 15.0525 49.9101 15.0338 49.8914 15.0057C49.0026 14.1264 47.7584 13.8925 47.1035 14.4912L47.0942 14.4819Z" fill="#E1251B"/>
<path d="M41.7523 12.0682C42.7346 12.8821 44.1285 13.0505 44.8489 12.4612C45.5318 11.8998 45.326 10.8333 44.3811 10.0756C43.455 9.33651 42.1265 9.14941 41.3968 9.65459C40.6297 10.1878 40.7794 11.273 41.7523 12.0682Z" fill="#E1251B"/>
<path d="M35.9146 5.91251C35.1101 6.36156 35.1662 7.20353 36.0643 7.81161C36.9905 8.42906 38.3937 8.53197 39.1796 8.03614C39.928 7.55902 39.7877 6.71705 38.8802 6.14639C38.0008 5.59443 36.6724 5.49152 35.9053 5.92186L35.9146 5.91251Z" fill="#E1251B"/>
<path d="M32.5 3.134C32.0135 3.134 31.5364 3.22755 31.1622 3.39595C30.3577 3.7608 30.3202 4.37825 31.1061 4.78052C31.4896 4.97698 31.9948 5.07989 32.5 5.08924C33.0052 5.07989 33.5104 4.97698 33.8939 4.78052C34.6704 4.37825 34.633 3.7608 33.8378 3.39595C33.4636 3.22755 32.9865 3.14336 32.5 3.134Z" fill="#E1251B"/>
<path d="M42.2013 18.5888C41.1909 19.543 41.2938 21.2457 42.4445 22.387C42.4726 22.4151 42.5007 22.4432 42.5287 22.4712C42.5568 22.4993 42.5849 22.5274 42.6129 22.5554C43.7543 23.6968 45.4569 23.809 46.4111 22.7987C47.3186 21.8257 47.1783 20.1605 46.0837 19.0659C46.0556 19.0379 46.0276 19.0192 46.0089 18.9911C45.9808 18.963 45.9621 18.935 45.934 18.9162C44.8395 17.831 43.1742 17.6814 42.2013 18.5888Z" fill="#E1251B"/>
<path d="M36.1579 13.2563C35.1007 14.1077 35.1475 15.6138 36.2888 16.6148C37.4489 17.6346 39.2357 17.7188 40.2742 16.7926C41.2658 15.9039 41.1348 14.4164 40.0029 13.4621C38.8896 12.5266 37.1776 12.4331 36.1579 13.247V13.2563Z" fill="#E1251B"/>
<path d="M32.5 8.49454C31.8732 8.51325 31.2464 8.68164 30.7599 9.01843C29.7028 9.75749 29.6654 10.9924 30.6851 11.7782C31.1903 12.1618 31.8358 12.3676 32.4906 12.3863C33.1455 12.3582 33.8004 12.1618 34.2962 11.7782C35.3159 10.9924 35.2785 9.75749 34.2214 9.01843C33.7349 8.68164 33.1174 8.50389 32.4813 8.49454H32.5Z" fill="#E1251B"/>
<path d="M55.0742 55.0367C55.0742 55.0367 55.0648 55.046 55.0554 55.0554C55.0554 55.0554 55.0461 55.0648 55.0367 55.0741C54.6438 55.467 54.3912 55.8319 54.4754 55.888C54.5503 55.9441 54.9245 55.6916 55.2987 55.3173C55.2987 55.3173 55.2987 55.308 55.308 55.2986C55.308 55.2986 55.3174 55.2986 55.3267 55.2893C55.701 54.9151 55.9535 54.5502 55.8974 54.466C55.8319 54.3818 55.4671 54.6344 55.0835 55.0273L55.0742 55.0367Z" fill="#E1251B"/>
<path d="M58.6198 50.9298C58.2923 51.3601 58.0584 51.8091 58.0865 51.9308C58.1146 52.043 58.3859 51.7998 58.6946 51.3882C59.0033 50.9765 59.2372 50.5368 59.2278 50.4059C59.2185 50.2655 58.9472 50.4994 58.6198 50.9298Z" fill="#E1251B"/>
<path d="M61.4263 46.6077C61.1831 47.0473 60.9772 47.5432 60.9679 47.7209C60.9585 47.8893 61.1363 47.6741 61.3702 47.2532C61.5947 46.8322 61.8005 46.3551 61.8192 46.168C61.8379 45.9809 61.6695 46.168 61.4263 46.6077Z" fill="#E1251B"/>
<path d="M63.3722 42.3604C63.2132 42.7814 63.0635 43.3053 63.0261 43.5204C63.0074 43.642 63.0261 43.6327 63.0729 43.5391C63.2413 43.062 63.4097 42.5756 63.5593 42.0891C63.5593 42.0704 63.5593 42.0517 63.5687 42.033C63.6155 41.7991 63.5219 41.9488 63.3722 42.3604Z" fill="#E1251B"/>
<path d="M53.7831 53.7083C53.7831 53.7083 53.7644 53.7363 53.7457 53.7457C53.7364 53.755 53.7177 53.7644 53.7083 53.7831C53.1657 54.3257 52.885 54.9057 53.1002 55.0835C53.2967 55.2425 53.8767 54.9619 54.3912 54.4567C54.4006 54.4473 54.4099 54.438 54.4193 54.4286C54.4287 54.4193 54.438 54.4099 54.4474 54.4005C54.9619 53.886 55.2426 53.306 55.0742 53.1095C54.8964 52.8944 54.3164 53.175 53.7738 53.7176L53.7831 53.7083Z" fill="#E1251B"/>
<path d="M57.8619 49.0213C57.4035 49.62 57.1509 50.303 57.2819 50.5556C57.4129 50.7894 57.8619 50.5275 58.2923 49.9568C58.7133 49.3955 58.9752 48.7313 58.8723 48.46C58.76 48.1793 58.311 48.4319 57.8619 49.0213Z" fill="#E1251B"/>
<path d="M61.0896 44.1753C60.7528 44.7647 60.5376 45.5131 60.6218 45.8312C60.6966 46.1305 61.0147 45.906 61.3328 45.3353C61.6415 44.774 61.8473 44.063 61.7912 43.7356C61.7351 43.3988 61.417 43.5859 61.0802 44.1753H61.0896Z" fill="#E1251B"/>
<path d="M63.3161 39.5164C63.1009 40.0684 62.9606 40.8168 62.998 41.1816C63.0354 41.5278 63.2319 41.3687 63.4377 40.8355C63.6341 40.3116 63.7745 39.6006 63.7464 39.2357C63.7183 38.8522 63.5312 38.9738 63.3161 39.5164Z" fill="#E1251B"/>
<path d="M64.5603 35.3346C64.4574 35.8211 64.3919 36.5415 64.4107 36.9344C64.4294 37.3179 64.5136 37.2337 64.6071 36.7566C64.7007 36.2889 64.7568 35.6153 64.7474 35.2224C64.7381 34.8201 64.6445 34.8669 64.551 35.3346H64.5603Z" fill="#E1251B"/>
<path d="M51.3976 51.2853C51.3976 51.2853 51.3601 51.3227 51.3414 51.3414C51.3227 51.3601 51.304 51.3788 51.2853 51.3975C50.5556 52.1179 50.303 52.9973 50.7146 53.3621C51.0982 53.6989 51.9682 53.4276 52.6605 52.7447C52.6792 52.726 52.6886 52.7166 52.7073 52.6979C52.726 52.6792 52.7353 52.6698 52.7541 52.6511C53.437 51.9682 53.7083 51.0982 53.3715 50.7052C53.0066 50.2936 52.1273 50.5556 51.4069 51.2759L51.3976 51.2853Z" fill="#E1251B"/>
<path d="M56.0564 46.0276C55.4389 46.8041 55.2051 47.8051 55.5231 48.2542C55.8225 48.6752 56.5335 48.4226 57.1135 47.6835C57.6842 46.9538 57.9274 45.9902 57.6561 45.5224C57.3755 45.036 56.6645 45.2605 56.0564 46.0276Z" fill="#E1251B"/>
<path d="M60.575 42.5756C60.9959 41.8552 61.1643 40.8636 60.9679 40.349C60.7527 39.8064 60.2195 39.9468 59.7704 40.6952C59.312 41.4529 59.1343 42.5007 59.3775 43.0246C59.6114 43.5204 60.1446 43.3146 60.575 42.5849V42.5756Z" fill="#E1251B"/>
<path d="M62.3525 35.7182C62.0625 36.4011 61.9689 37.4302 62.156 37.9915C62.3338 38.5341 62.6986 38.4125 62.9699 37.7483C63.2319 37.0934 63.3161 36.1392 63.157 35.5779C62.998 34.9978 62.6331 35.054 62.3525 35.7182Z" fill="#E1251B"/>
<path d="M47.6741 47.5338C47.6741 47.5338 47.6273 47.5806 47.6086 47.6087C47.5806 47.6274 47.5619 47.6555 47.5338 47.6742C46.5983 48.6097 46.4018 49.882 47.0847 50.5181C47.7396 51.1169 48.9838 50.883 49.8726 50.0036C49.8913 49.9849 49.91 49.9662 49.9287 49.9381C49.9474 49.9194 49.9661 49.9007 49.9942 49.882C50.8736 48.9932 51.1075 47.749 50.5087 47.0941C49.8726 46.4019 48.6003 46.5983 47.6648 47.5432L47.6741 47.5338Z" fill="#E1251B"/>
<path d="M52.9317 41.7523C52.1178 42.7346 51.9494 44.1285 52.5388 44.8489C53.1001 45.5318 54.1666 45.326 54.9244 44.3811C55.6635 43.455 55.8506 42.1265 55.3454 41.3968C54.8121 40.6297 53.7269 40.7794 52.9317 41.7523Z" fill="#E1251B"/>
<path d="M59.0781 35.9146C58.6291 35.1101 57.7871 35.1662 57.179 36.0643C56.5615 36.9905 56.4586 38.3938 56.9545 39.1796C57.4316 39.928 58.2736 39.7877 58.8442 38.8802C59.3962 38.0009 59.4991 36.6724 59.0687 35.9053L59.0781 35.9146Z" fill="#E1251B"/>
<path d="M61.6041 33.8284C61.7725 33.4542 61.8566 32.9771 61.866 32.4906C61.866 32.0042 61.7725 31.527 61.6041 31.1528C61.2392 30.3483 60.6218 30.3109 60.2195 31.0967C60.023 31.4803 59.9201 31.9855 59.9108 32.4906C59.9201 32.9958 60.023 33.501 60.2195 33.8846C60.6218 34.661 61.2392 34.6236 61.6041 33.8284Z" fill="#E1251B"/>
<path d="M42.6036 42.4446C42.6036 42.4446 42.5475 42.5007 42.5194 42.5288C42.4914 42.5569 42.4633 42.5849 42.4352 42.613C41.2939 43.7543 41.1816 45.457 42.192 46.4112C43.1649 47.3187 44.8302 47.1783 45.9247 46.0838C45.9528 46.0557 45.9715 46.0276 45.9996 46.0089C46.0276 45.9809 46.0557 45.9621 46.0744 45.9341C47.1596 44.8395 47.3093 43.1743 46.4018 42.2014C45.4476 41.191 43.745 41.2939 42.6036 42.4446Z" fill="#E1251B"/>
<path d="M48.3758 36.2888C47.3561 37.4489 47.2719 39.2357 48.1981 40.2742C49.0868 41.2658 50.5743 41.1348 51.5285 40.0029C52.4641 38.8896 52.5576 37.1776 51.7437 36.1579C50.8924 35.1007 49.3862 35.1475 48.3852 36.2888H48.3758Z" fill="#E1251B"/>
<path d="M36.4572 36.2795C36.4572 36.2795 36.4011 36.345 36.373 36.3731C36.345 36.4011 36.3075 36.4292 36.2795 36.4573C34.951 37.7857 34.9323 39.9 36.2234 41.1536C37.4957 42.3791 39.5725 42.3323 40.8729 41.0413C40.901 41.0132 40.929 40.9852 40.9571 40.9571C40.9852 40.929 41.0132 40.901 41.0413 40.8729C42.3323 39.5725 42.3884 37.4957 41.1535 36.2234C39.8906 34.923 37.7857 34.9417 36.4572 36.2795Z" fill="#E1251B"/>
<path d="M58.0864 13.0692C58.0584 13.1908 58.3016 13.6305 58.6197 14.0702C58.9471 14.5006 59.2184 14.7344 59.2278 14.5941C59.2371 14.4631 59.0032 14.0234 58.6945 13.6118C58.3858 13.2002 58.1145 12.957 58.0864 13.0692Z" fill="#E1251B"/>
<path d="M60.9679 17.2791C60.9772 17.4475 61.1831 17.9527 61.4263 18.3923C61.6695 18.832 61.8379 19.0191 61.8192 18.832C61.8005 18.6543 61.5947 18.1678 61.3702 17.7468C61.1363 17.3259 60.9585 17.1107 60.9679 17.2791Z" fill="#E1251B"/>
<path d="M63.0261 21.4796C63.0635 21.6947 63.2225 22.2186 63.3722 22.6396C63.5219 23.0512 63.6155 23.1916 63.5687 22.967C63.5687 22.9483 63.5687 22.9296 63.5593 22.9109C63.4097 22.4244 63.2506 21.9473 63.0729 21.4609C63.0261 21.3579 62.998 21.3579 63.0261 21.4796Z" fill="#E1251B"/>
<path d="M57.2913 14.4444C57.151 14.697 57.4129 15.38 57.8713 15.9787C58.3204 16.5681 58.7694 16.8207 58.8817 16.54C58.9846 16.2781 58.7226 15.6045 58.3017 15.0432C57.8713 14.4819 57.4223 14.2106 57.2913 14.4444Z" fill="#E1251B"/>
<path d="M60.6218 19.1688C60.5376 19.4869 60.7528 20.226 61.0896 20.8247C61.4264 21.4141 61.7351 21.6012 61.8006 21.2644C61.8567 20.937 61.6509 20.226 61.3422 19.6646C61.0241 19.094 60.706 18.8695 60.6312 19.1688H60.6218Z" fill="#E1251B"/>
<path d="M62.998 23.809C62.9606 24.1739 63.1009 24.9223 63.3161 25.4742C63.5219 26.0168 63.7183 26.1291 63.7464 25.7549C63.7745 25.39 63.6341 24.6791 63.4377 24.1552C63.2319 23.6219 63.0448 23.4629 62.998 23.809Z" fill="#E1251B"/>
<path d="M64.4107 28.0656C64.3919 28.4586 64.4574 29.1883 64.5603 29.6654C64.6539 30.1331 64.7474 30.1799 64.7568 29.7776C64.7662 29.3847 64.71 28.7111 64.6165 28.2434C64.5229 27.7663 64.4294 27.6821 64.42 28.0656H64.4107Z" fill="#E1251B"/>
<path d="M64.9719 31.7516C64.9719 31.9574 64.9719 32.2287 64.9719 32.5C64.9719 32.7713 64.9719 33.0426 64.9719 33.2484C64.9719 33.4823 64.9438 33.5384 64.9813 33.4917C64.9906 33.1642 65 32.8274 65 32.5C65 32.1726 65 31.8358 64.9813 31.5084C64.9438 31.4522 64.9812 31.5177 64.9719 31.7516Z" fill="#E1251B"/>
<path d="M55.5325 16.7458C55.2145 17.1949 55.4483 18.1959 56.0658 18.9724C56.6739 19.7395 57.3849 19.964 57.6655 19.4775C57.9275 19.0191 57.6842 18.0555 57.1229 17.3165C56.5523 16.5774 55.8413 16.3155 55.5325 16.7458Z" fill="#E1251B"/>
<path d="M59.3775 21.9848C59.1343 22.5086 59.312 23.5471 59.7704 24.3142C60.2195 25.0533 60.7527 25.2029 60.9679 24.6603C61.1643 24.1365 60.9959 23.1448 60.575 22.4338C60.1446 21.7041 59.6114 21.5076 59.3775 21.9941V21.9848Z" fill="#E1251B"/>
<path d="M62.156 26.9991C61.9689 27.5604 62.0625 28.5895 62.3525 29.2724C62.6331 29.9367 62.998 29.9928 63.157 29.4128C63.3161 28.8608 63.2319 27.8972 62.9699 27.2424C62.6986 26.5781 62.3338 26.4565 62.156 26.9991Z" fill="#E1251B"/>
<path d="M64.3077 31.5083C64.1861 30.9377 63.9616 30.9096 63.8212 31.4709C63.7464 31.7516 63.709 32.1258 63.709 32.5C63.709 32.8742 63.7464 33.2391 63.8212 33.5291C63.9616 34.0904 64.1767 34.0623 64.3077 33.4917C64.3638 33.2203 64.4013 32.8649 64.3919 32.5094C64.3919 32.1539 64.3638 31.7984 64.3077 31.5271V31.5083Z" fill="#E1251B"/>
<path d="M54.9151 20.6095C54.1573 19.674 53.0909 19.4588 52.5295 20.1418C51.9402 20.8715 52.1086 22.256 52.9225 23.2383C53.7177 24.2019 54.8029 24.3516 55.3361 23.5938C55.8413 22.8641 55.6542 21.5357 54.9151 20.6095Z" fill="#E1251B"/>
<path d="M58.8536 26.1104C58.283 25.2029 57.441 25.072 56.9639 25.811C56.468 26.5968 56.5709 28.0001 57.1884 28.9263C57.7871 29.8244 58.6384 29.8899 59.0875 29.076C59.5178 28.3089 59.4149 26.9804 58.863 26.101L58.8536 26.1104Z" fill="#E1251B"/>
<path d="M48.198 24.7258C47.2812 25.7549 47.3561 27.5417 48.3758 28.7111C49.3768 29.8431 50.883 29.8992 51.7343 28.8421C52.5482 27.8224 52.4546 26.1104 51.5191 24.9971C50.5649 23.8651 49.0774 23.7435 48.1887 24.7258H48.198Z" fill="#E1251B"/>
<path d="M55.9722 30.7599C55.2332 29.7028 53.9983 29.6654 53.2125 30.6851C52.8289 31.1903 52.6231 31.8358 52.6044 32.4906C52.6324 33.1455 52.8289 33.8004 53.2125 34.2962C53.9983 35.3159 55.2332 35.2785 55.9722 34.2214C56.309 33.7349 56.4868 33.1174 56.4961 32.4813C56.4774 31.8545 56.309 31.2277 55.9722 30.7412V30.7599Z" fill="#E1251B"/>
<path d="M41.1536 28.7673C42.3791 27.495 42.3324 25.4181 41.0413 24.1177C41.0133 24.0897 40.9852 24.0616 40.9571 24.0335C40.9291 24.0055 40.901 23.9774 40.8729 23.9493C39.5726 22.6583 37.4957 22.6022 36.2234 23.8371C34.923 25.1 34.9417 27.205 36.2795 28.5334C36.3076 28.5615 36.345 28.5895 36.3731 28.6176C36.4012 28.6457 36.4292 28.6831 36.4573 28.7111C37.7857 30.0396 39.9 30.0583 41.1536 28.7673Z" fill="#E1251B"/>
<path d="M42.6129 30.2828C42.0329 30.9002 41.7242 31.6954 41.6868 32.5C41.7242 33.3045 42.0329 34.0997 42.6129 34.7172C43.8291 35.9895 45.7656 35.9614 46.935 34.661C47.4776 34.0623 47.7583 33.2858 47.7864 32.5C47.7583 31.7142 47.4776 30.947 46.935 30.3389C45.7656 29.0386 43.8291 29.0105 42.6129 30.2828Z" fill="#E1251B"/>
<path d="M9.92591 9.96331C9.92591 9.96331 9.93526 9.95396 9.94462 9.9446C9.94462 9.9446 9.95397 9.93525 9.96333 9.92589C10.3562 9.53297 10.6088 9.16812 10.5246 9.11199C10.4498 9.05586 10.0756 9.30845 9.70138 9.68266C9.70138 9.68266 9.70138 9.69201 9.69203 9.70137C9.68267 9.71072 9.68267 9.70137 9.67332 9.71072C9.29911 10.0849 9.04652 10.4498 9.10265 10.534C9.16814 10.6182 9.53299 10.3656 9.91655 9.97267L9.92591 9.96331Z" fill="#E1251B"/>
<path d="M6.29609 13.6118C5.98737 14.0234 5.75349 14.4631 5.76284 14.5941C5.7722 14.7344 6.0435 14.5006 6.37093 14.0702C6.69837 13.6399 6.93225 13.1908 6.90418 13.0692C6.87611 12.957 6.60481 13.2002 6.29609 13.6118Z" fill="#E1251B"/>
<path d="M3.56438 18.3923C3.80762 17.9527 4.01343 17.4568 4.02279 17.2791C4.03214 17.1107 3.85439 17.3259 3.62051 17.7468C3.39599 18.1678 3.19017 18.6449 3.17146 18.832C3.15275 19.0191 3.32114 18.832 3.56438 18.3923Z" fill="#E1251B"/>
<path d="M1.61849 22.6396C1.76817 22.2186 1.92721 21.6947 1.96463 21.4795C1.98334 21.3579 1.96463 21.3673 1.91785 21.4608C1.74946 21.938 1.58107 22.4244 1.43138 22.9109C1.43138 22.9296 1.43138 22.9483 1.42203 22.967C1.37525 23.2009 1.4688 23.0512 1.61849 22.6396Z" fill="#E1251B"/>
<path d="M11.2169 11.2917C11.2169 11.2917 11.2356 11.2637 11.2543 11.2543C11.2636 11.245 11.2823 11.2356 11.2917 11.2169C11.8343 10.6743 12.115 10.0943 11.8998 9.91652C11.7033 9.75748 11.1233 10.0381 10.6088 10.5433C10.5994 10.5527 10.5901 10.562 10.5807 10.5714C10.5713 10.5807 10.562 10.5901 10.5526 10.5994C10.0381 11.114 9.75744 11.694 9.92584 11.8905C10.1036 12.1056 10.6836 11.825 11.2262 11.2824L11.2169 11.2917Z" fill="#E1251B"/>
<path d="M7.12869 15.9693C7.5871 15.3706 7.83969 14.6877 7.70872 14.4351C7.57774 14.2012 7.12869 14.4631 6.69835 15.0338C6.27737 15.5951 6.01542 16.2593 6.11833 16.5306C6.23059 16.8113 6.67964 16.5587 7.12869 15.9693Z" fill="#E1251B"/>
<path d="M3.90118 20.8247C4.23796 20.2353 4.45313 19.4869 4.36894 19.1688C4.29409 18.8695 3.97602 19.094 3.65794 19.6646C3.34922 20.226 3.1434 20.937 3.19953 21.2644C3.25567 21.6012 3.57374 21.4141 3.91053 20.8247H3.90118Z" fill="#E1251B"/>
<path d="M1.67464 25.4836C1.88981 24.9316 2.03014 24.1832 1.99272 23.8184C1.95529 23.4722 1.75884 23.6313 1.55302 24.1645C1.35656 24.6884 1.21623 25.3994 1.2443 25.7642C1.27236 26.1478 1.45947 26.0262 1.67464 25.4836Z" fill="#E1251B"/>
<path d="M0.430305 29.6654C0.533212 29.1789 0.598698 28.4586 0.579988 28.0656C0.561277 27.6821 0.477081 27.7663 0.383528 28.2434C0.289976 28.7111 0.233845 29.3847 0.2432 29.7776C0.252556 30.1799 0.346108 30.1331 0.43966 29.6654H0.430305Z" fill="#E1251B"/>
<path d="M0.0280656 33.2484C0.0280656 33.0426 0.0280656 32.7713 0.0280656 32.5C0.0280656 32.2287 0.0280656 31.9574 0.0280656 31.7516C0.0280656 31.5177 0.0561313 31.4616 0.0187104 31.5084C0 31.8358 0 32.1632 0 32.5C0 32.8274 0 33.1642 0.0187104 33.4917C0.0561313 33.5478 0.0187104 33.4823 0.0280656 33.2484Z" fill="#E1251B"/>
<path d="M13.6025 13.7054C13.6025 13.7054 13.6399 13.668 13.6586 13.6493C13.6773 13.6306 13.696 13.6118 13.7147 13.5931C14.4444 12.8728 14.697 11.9934 14.2854 11.6285C13.9018 11.2918 13.0318 11.5631 12.3395 12.246C12.3208 12.2647 12.3114 12.274 12.2927 12.2928C12.274 12.3115 12.2647 12.3208 12.246 12.3395C11.563 13.0225 11.2917 13.8925 11.6285 14.2854C11.9934 14.697 12.8727 14.4351 13.5931 13.7147L13.6025 13.7054Z" fill="#E1251B"/>
<path d="M8.93424 18.9724C9.55168 18.1959 9.78556 17.1949 9.46749 16.7458C9.16812 16.3248 8.45712 16.5774 7.8771 17.3165C7.30643 18.0462 7.0632 19.0098 7.3345 19.4775C7.61516 19.964 8.32615 19.7395 8.93424 18.9724Z" fill="#E1251B"/>
<path d="M4.41564 22.4245C3.99465 23.1448 3.82626 24.1365 4.02272 24.651C4.23789 25.1936 4.77114 25.0533 5.22019 24.3048C5.67859 23.5471 5.85634 22.4993 5.6131 21.9754C5.37922 21.4796 4.84598 21.6854 4.41564 22.4151V22.4245Z" fill="#E1251B"/>
<path d="M2.64757 29.2724C2.93758 28.5895 3.03113 27.5604 2.84402 26.9991C2.66628 26.4565 2.30142 26.5781 2.03012 27.2424C1.76818 27.8972 1.68398 28.8515 1.84302 29.4128C2.00206 29.9928 2.36691 29.9367 2.64757 29.2724Z" fill="#E1251B"/>
<path d="M0.692319 33.4823C0.813937 34.053 1.03846 34.081 1.17879 33.5197C1.25363 33.239 1.29105 32.8648 1.29105 32.4906C1.29105 32.1164 1.25363 31.7516 1.17879 31.4616C1.03846 30.9002 0.823292 30.9283 0.692319 31.499C0.636188 31.7703 0.598767 32.1258 0.608122 32.4813C0.608122 32.8368 0.636188 33.1923 0.692319 33.4636V33.4823Z" fill="#E1251B"/>
<path d="M17.3165 17.4568C17.3165 17.4568 17.3632 17.41 17.382 17.382C17.41 17.3633 17.4287 17.3352 17.4568 17.3165C18.3923 16.381 18.5888 15.1087 17.9058 14.4725C17.251 13.8738 16.0067 14.1077 15.118 14.987C15.0993 15.0058 15.0806 15.0245 15.0619 15.0525C15.0432 15.0712 15.0244 15.0899 14.9964 15.1087C14.117 15.9974 13.8831 17.2416 14.4818 17.8965C15.118 18.5888 16.3903 18.3923 17.3258 17.4475L17.3165 17.4568Z" fill="#E1251B"/>
<path d="M12.0682 23.2383C12.8821 22.256 13.0505 20.8621 12.4611 20.1418C11.8998 19.4588 10.8333 19.6647 10.0755 20.6095C9.33648 21.5357 9.14938 22.8641 9.65456 23.5938C10.1878 24.361 11.273 24.2113 12.0682 23.2383Z" fill="#E1251B"/>
<path d="M5.91245 29.0853C6.3615 29.8899 7.20346 29.8338 7.81155 28.9357C8.429 28.0095 8.5319 26.6062 8.03608 25.8204C7.55896 25.072 6.71699 25.2123 6.14633 26.1197C5.59437 26.9991 5.49146 28.3276 5.9218 29.0947L5.91245 29.0853Z" fill="#E1251B"/>
<path d="M22.3871 22.5554C22.3871 22.5554 22.4432 22.4993 22.4713 22.4712C22.4993 22.4432 22.5274 22.4151 22.5555 22.387C23.6968 21.2457 23.8091 19.543 22.7987 18.5888C21.8257 17.6814 20.1605 17.8217 19.066 18.9162C19.0379 18.9443 19.0192 18.9724 18.9911 18.9911C18.9631 19.0192 18.935 19.0379 18.9163 19.0659C17.8311 20.1605 17.6814 21.8257 18.5888 22.7987C19.5431 23.809 21.2457 23.7061 22.3871 22.5554Z" fill="#E1251B"/>
<path d="M16.6149 28.7018C17.6346 27.5417 17.7188 25.7549 16.7927 24.7165C15.9039 23.7248 14.4164 23.8558 13.4622 24.9878C12.5267 26.101 12.4331 27.813 13.247 28.8327C14.0984 29.8899 15.6045 29.8431 16.6056 28.7018H16.6149Z" fill="#E1251B"/>
<path d="M28.5428 28.7205C28.5428 28.7205 28.5989 28.655 28.627 28.6269C28.6551 28.5989 28.6925 28.5708 28.7205 28.5427C30.049 27.2143 30.0677 25.1 28.7767 23.8464C27.5044 22.6209 25.4275 22.6677 24.1271 23.9587C24.0991 23.9868 24.071 24.0148 24.0429 24.0429C24.0149 24.071 23.9868 24.099 23.9587 24.1271C22.6677 25.4275 22.6116 27.5043 23.8465 28.7766C25.1094 30.077 27.2144 30.0583 28.5428 28.7205Z" fill="#E1251B"/>
<path d="M22.3871 34.7078C22.9671 34.0904 23.2758 33.2952 23.3132 32.4907C23.2758 31.6861 22.9671 30.8909 22.3871 30.2735C21.1709 29.0012 19.2343 29.0292 18.0649 30.3296C17.5223 30.9283 17.2417 31.7048 17.2136 32.4907C17.2417 33.2765 17.5223 34.0436 18.0649 34.6517C19.2343 35.9521 21.1709 35.9801 22.3871 34.7078Z" fill="#E1251B"/>
<path d="M9.94454 55.0554C9.94454 55.0554 9.93519 55.0461 9.92583 55.0367C9.53291 54.6438 9.16806 54.3912 9.11193 54.4754C9.0558 54.5502 9.30839 54.9244 9.6826 55.2987C9.6826 55.2987 9.69195 55.2986 9.70131 55.308C9.70131 55.308 9.70131 55.3174 9.71066 55.3267C10.0849 55.7009 10.4497 55.9535 10.5339 55.8974C10.6181 55.8319 10.3655 55.467 9.97261 55.0835C9.97261 55.0835 9.96325 55.0741 9.9539 55.0648L9.94454 55.0554Z" fill="#E1251B"/>
<path d="M5.76284 50.4059C5.75349 50.5368 5.98737 50.9765 6.29609 51.3882C6.60481 51.7998 6.87611 52.043 6.90418 51.9308C6.93225 51.8091 6.68901 51.3695 6.37093 50.9298C6.0435 50.4994 5.7722 50.2655 5.76284 50.4059Z" fill="#E1251B"/>
<path d="M4.03206 47.7209C4.02271 47.5525 3.81689 47.0473 3.57366 46.6077C3.33042 46.168 3.16203 45.9809 3.18074 46.168C3.19945 46.3457 3.40526 46.8322 3.62979 47.2532C3.86367 47.6741 4.04142 47.8893 4.03206 47.7209Z" fill="#E1251B"/>
<path d="M1.96463 43.5204C1.92721 43.3053 1.76817 42.7814 1.61849 42.3604C1.4688 41.9488 1.37525 41.8084 1.42203 42.0329C1.42203 42.0517 1.42203 42.0704 1.43138 42.0891C1.58107 42.5756 1.74011 43.0527 1.91785 43.5391C1.96463 43.642 1.9927 43.642 1.96463 43.5204Z" fill="#E1251B"/>
<path d="M11.8999 55.0741C12.1151 54.8964 11.8344 54.3163 11.2918 53.7737C11.2824 53.7644 11.2637 53.755 11.2544 53.7363C11.245 53.727 11.2357 53.7083 11.217 53.6989C10.6744 53.1563 10.0943 52.8756 9.91658 53.0908C9.75754 53.2873 10.0382 53.8673 10.5434 54.3818C10.5527 54.3912 10.5621 54.4005 10.5714 54.4099C10.5808 54.4193 10.5902 54.4286 10.5995 54.438C11.114 54.9525 11.6941 55.2332 11.8905 55.0648L11.8999 55.0741Z" fill="#E1251B"/>
<path d="M6.11833 48.4693C6.01542 48.7313 6.27737 49.4048 6.69835 49.9662C7.12869 50.5275 7.57774 50.7988 7.70872 50.5649C7.84904 50.3123 7.5871 49.6294 7.12869 49.0306C6.67964 48.4413 6.23059 48.1887 6.11833 48.4693Z" fill="#E1251B"/>
<path d="M4.36889 45.8218C4.44373 45.5038 4.23792 44.7647 3.90113 44.166C3.56434 43.5766 3.25562 43.3895 3.19014 43.7263C3.134 44.0537 3.33982 44.7647 3.64854 45.326C3.96662 45.8967 4.28469 46.1212 4.35954 45.8218H4.36889Z" fill="#E1251B"/>
<path d="M1.99272 41.1816C2.03014 40.8168 1.88981 40.0684 1.67464 39.5164C1.46882 38.9738 1.27236 38.8615 1.2443 39.2357C1.21623 39.6006 1.35656 40.3116 1.55302 40.8355C1.75884 41.3687 1.94594 41.5278 1.99272 41.1816Z" fill="#E1251B"/>
<path d="M0.580066 36.9344C0.598776 36.5415 0.53329 35.8118 0.430382 35.3346C0.33683 34.8669 0.243278 34.8201 0.233923 35.2224C0.224568 35.6153 0.280699 36.2889 0.374251 36.7566C0.467803 37.2337 0.561355 37.3179 0.570711 36.9344H0.580066Z" fill="#E1251B"/>
<path d="M11.6379 50.7146C11.3011 51.0982 11.5724 51.9682 12.2554 52.6605C12.2741 52.6792 12.2834 52.6886 12.3021 52.7073C12.3208 52.726 12.3302 52.7353 12.3489 52.754C13.0318 53.437 13.9019 53.7083 14.2948 53.3715C14.7064 53.0066 14.4445 52.1272 13.7241 51.4069C13.7054 51.3882 13.6867 51.3695 13.668 51.3508C13.6493 51.332 13.6306 51.3133 13.6119 51.2946C12.8915 50.5649 12.0121 50.3123 11.6473 50.724L11.6379 50.7146Z" fill="#E1251B"/>
<path d="M9.4675 48.2542C9.78558 47.8051 9.5517 46.8041 8.93426 46.0276C8.32617 45.2605 7.61517 45.036 7.33451 45.5224C7.07257 45.9809 7.3158 46.9538 7.87712 47.6835C8.44778 48.4226 9.15878 48.6845 9.4675 48.2542Z" fill="#E1251B"/>
<path d="M5.6131 43.0153C5.85634 42.4914 5.67859 41.4529 5.22019 40.6858C4.77114 39.9467 4.23789 39.7971 4.02272 40.3397C3.82626 40.8636 3.99465 41.8552 4.41564 42.5662C4.84598 43.2959 5.37922 43.4924 5.6131 43.0059V43.0153Z" fill="#E1251B"/>
<path d="M2.84402 37.9915C3.03113 37.4302 2.93758 36.4011 2.64757 35.7182C2.36691 35.054 2.00206 34.9978 1.84302 35.5779C1.68398 36.1298 1.76818 37.0934 2.03012 37.7483C2.30142 38.4125 2.66628 38.5341 2.84402 37.9915Z" fill="#E1251B"/>
<path d="M17.9059 50.5181C18.5982 49.882 18.4018 48.6097 17.4569 47.6741C17.4288 47.6461 17.4101 47.6274 17.382 47.6087C17.3633 47.5806 17.3353 47.5619 17.3165 47.5338C16.381 46.5983 15.1087 46.4018 14.4726 47.0848C13.8738 47.7396 14.1077 48.9839 14.9871 49.8726C15.0058 49.8913 15.0245 49.91 15.0526 49.9288C15.0713 49.9475 15.09 49.9662 15.1087 49.9942C15.9975 50.8736 17.2417 51.1075 17.8966 50.5088L17.9059 50.5181Z" fill="#E1251B"/>
<path d="M10.0755 44.3905C10.8333 45.326 11.8998 45.5412 12.4611 44.8582C13.0505 44.1285 12.8821 42.7439 12.0682 41.7617C11.273 40.7981 10.1878 40.6484 9.65456 41.4062C9.14938 42.1359 9.33648 43.4643 10.0755 44.3905Z" fill="#E1251B"/>
<path d="M6.1464 38.8896C6.71707 39.7971 7.55904 39.928 8.03616 39.189C8.53198 38.4031 8.42907 36.9999 7.81163 36.0737C7.2129 35.1756 6.36157 35.1101 5.91252 35.924C5.48218 36.6911 5.58509 38.0196 6.13705 38.899L6.1464 38.8896Z" fill="#E1251B"/>
<path d="M3.38658 31.1622C3.21819 31.5364 3.13399 32.0135 3.12463 32.5C3.12463 32.9865 3.21819 33.4636 3.38658 33.8378C3.75143 34.6424 4.36888 34.6798 4.77115 33.8939C4.96761 33.5104 5.07052 33.0052 5.07987 32.5C5.07052 31.9948 4.96761 31.4896 4.77115 31.1061C4.36888 30.3296 3.75143 30.367 3.38658 31.1622Z" fill="#E1251B"/>
<path d="M18.5888 42.2014C17.6814 43.1743 17.8217 44.8395 18.9163 45.9341C18.9443 45.9622 18.9724 45.9809 18.9911 46.0089C19.0192 46.037 19.0379 46.0651 19.066 46.0838C20.1605 47.169 21.8257 47.3187 22.7987 46.4112C23.8091 45.457 23.7061 43.7543 22.5555 42.613C22.5274 42.5849 22.4993 42.5569 22.4713 42.5288C22.4432 42.5007 22.4151 42.4727 22.3871 42.4446C21.2457 41.3033 19.5431 41.191 18.5888 42.2014Z" fill="#E1251B"/>
<path d="M16.802 40.2742C17.7188 39.2451 17.6439 37.4583 16.6242 36.2889C15.6232 35.1569 14.117 35.1008 13.2657 36.1579C12.4518 37.1776 12.5454 38.8896 13.4809 40.0029C14.4351 41.1349 15.9226 41.2565 16.8113 40.2742H16.802Z" fill="#E1251B"/>
<path d="M9.0184 34.2307C9.75746 35.2879 10.9923 35.3253 11.7782 34.3056C12.1617 33.8004 12.3676 33.1549 12.3863 32.5C12.3582 31.8451 12.1617 31.1903 11.7782 30.6945C10.9923 29.6747 9.75746 29.7122 9.0184 30.7693C8.68161 31.2558 8.50386 31.8732 8.49451 32.5094C8.51322 33.1362 8.68161 33.763 9.0184 34.2494V34.2307Z" fill="#E1251B"/>
<path d="M50.9297 58.6197C50.4994 58.9472 50.2655 59.2185 50.4058 59.2278C50.5368 59.2372 50.9765 59.0033 51.3881 58.6946C51.7998 58.3859 52.043 58.1146 51.9307 58.0865C51.8091 58.0584 51.3694 58.3017 50.9297 58.6197Z" fill="#E1251B"/>
<path d="M46.6076 61.4263C46.1679 61.6696 45.9808 61.838 46.1679 61.8192C46.3456 61.8005 46.8321 61.5947 47.2531 61.3702C47.6741 61.1363 47.8893 60.9586 47.7209 60.9679C47.5525 60.9773 47.0473 61.1831 46.6076 61.4263Z" fill="#E1251B"/>
<path d="M43.5204 63.0261C43.3052 63.0635 42.7813 63.2225 42.3604 63.3722C41.9487 63.5219 41.8084 63.6154 42.0329 63.5687C42.0516 63.5687 42.0703 63.5687 42.0891 63.5593C42.5755 63.4096 43.0526 63.2506 43.5391 63.0728C43.642 63.0261 43.642 62.998 43.5204 63.0261Z" fill="#E1251B"/>
<path d="M50.5556 57.2913C50.303 57.151 49.62 57.4129 49.0213 57.8713C48.4319 58.3204 48.1793 58.7694 48.46 58.8817C48.7219 58.9846 49.3955 58.7226 49.9568 58.3017C50.5181 57.8713 50.7894 57.4223 50.5556 57.2913Z" fill="#E1251B"/>
<path d="M45.8218 60.6217C45.5037 60.5375 44.7647 60.7527 44.1659 61.0895C43.5765 61.4263 43.3894 61.735 43.7262 61.8005C44.0537 61.8566 44.7647 61.6508 45.326 61.3421C45.8966 61.024 46.1212 60.7059 45.8218 60.6311V60.6217Z" fill="#E1251B"/>
<path d="M39.5165 63.3161C38.9739 63.5219 38.8616 63.7183 39.2358 63.7464C39.6006 63.7745 40.3116 63.6341 40.8355 63.4377C41.3688 63.2319 41.5278 63.0448 41.1817 62.998C40.8168 62.9606 40.0684 63.1009 39.5165 63.3161Z" fill="#E1251B"/>
<path d="M35.3346 64.5603C34.8668 64.6539 34.82 64.7474 35.2223 64.7568C35.6152 64.7661 36.2888 64.71 36.7566 64.6165C37.2337 64.5229 37.3179 64.4294 36.9343 64.42C36.5414 64.4013 35.8117 64.4668 35.3346 64.5697V64.5603Z" fill="#E1251B"/>
<path d="M48.2542 55.5325C47.8051 55.2145 46.8041 55.4483 46.0276 56.0658C45.2605 56.6739 45.036 57.3849 45.5224 57.6655C45.9809 57.9275 46.9444 57.6842 47.6835 57.1229C48.4226 56.5523 48.6845 55.8413 48.2542 55.5325Z" fill="#E1251B"/>
<path d="M42.5755 60.575C43.3052 60.1446 43.5017 59.6114 43.0152 59.3775C42.4913 59.1343 41.4529 59.312 40.6857 59.7704C39.9467 60.2195 39.797 60.7527 40.3396 60.9679C40.8635 61.1644 41.8551 60.996 42.5661 60.575H42.5755Z" fill="#E1251B"/>
<path d="M37.9914 62.156C37.4301 61.9689 36.4011 62.0625 35.7181 62.3525C35.0539 62.6331 34.9978 62.998 35.5778 63.157C36.1298 63.3161 37.0933 63.2319 37.7482 62.9699C38.4124 62.6986 38.534 62.3338 37.9914 62.156Z" fill="#E1251B"/>
<path d="M44.8583 52.5388C44.1286 51.9495 42.744 52.1179 41.7617 52.9318C40.7981 53.727 40.6484 54.8122 41.4062 55.3454C42.1359 55.8506 43.4643 55.6635 44.3905 54.9244C45.326 54.1667 45.5412 53.1002 44.8583 52.5388Z" fill="#E1251B"/>
<path d="M38.8897 58.8536C39.7971 58.283 39.9281 57.441 39.189 56.9639C38.4032 56.468 36.9999 56.5709 36.0737 57.1884C35.1756 57.7871 35.1102 58.6384 35.9241 59.0875C36.6912 59.5178 38.0196 59.4149 38.899 58.863L38.8897 58.8536Z" fill="#E1251B"/>
<path d="M32.5 61.866C32.9864 61.866 33.4635 61.7725 33.8377 61.6041C34.6423 61.2392 34.6797 60.6218 33.8939 60.2195C33.5103 60.023 33.0051 59.9201 32.5 59.9108C31.9948 59.9201 31.4896 60.023 31.106 60.2195C30.3295 60.6218 30.367 61.2392 31.1622 61.6041C31.5364 61.7725 32.0135 61.8566 32.5 61.866Z" fill="#E1251B"/>
<path d="M36.1579 51.7343C37.1777 52.5482 38.8897 52.4547 40.0029 51.5191C41.1349 50.5649 41.2565 49.0774 40.2742 48.1887C39.2452 47.2719 37.4583 47.3467 36.2889 48.3664C35.1569 49.3674 35.1008 50.8736 36.1579 51.725V51.7343Z" fill="#E1251B"/>
<path d="M13.0692 58.0865C12.957 58.1146 13.2002 58.3859 13.6118 58.6946C14.0235 59.0033 14.4632 59.2372 14.5941 59.2278C14.7345 59.2185 14.5006 58.9472 14.0703 58.6198C13.6399 58.2923 13.1909 58.0584 13.0692 58.0865Z" fill="#E1251B"/>
<path d="M17.279 60.9679C17.1107 60.9586 17.3258 61.1363 17.7468 61.3702C18.1678 61.5947 18.6449 61.8005 18.832 61.8192C19.0191 61.838 18.832 61.6696 18.3923 61.4263C17.9526 61.1831 17.4568 60.9773 17.279 60.9679Z" fill="#E1251B"/>
<path d="M21.4796 63.026C21.358 63.0073 21.3673 63.026 21.4609 63.0728C21.938 63.2412 22.4245 63.4096 22.911 63.5593C22.9297 63.5593 22.9484 63.5593 22.9671 63.5686C23.201 63.6154 23.0513 63.5219 22.6397 63.3722C22.2187 63.2225 21.6948 63.0635 21.4796 63.026Z" fill="#E1251B"/>
<path d="M14.4444 57.2913C14.2105 57.4223 14.4725 57.8713 15.0431 58.3016C15.6044 58.7226 16.2687 58.9846 16.54 58.8817C16.8206 58.7694 16.568 58.3204 15.9786 57.8713C15.3799 57.4129 14.697 57.1603 14.4444 57.2913Z" fill="#E1251B"/>
<path d="M19.1688 60.6218C18.8694 60.6966 19.0939 61.0147 19.6646 61.3328C20.2259 61.6415 20.9369 61.8473 21.2644 61.7912C21.6011 61.735 21.414 61.417 20.8247 61.0802C20.2353 60.7434 19.4869 60.5282 19.1688 60.6124V60.6218Z" fill="#E1251B"/>
<path d="M23.809 62.998C23.4629 63.0354 23.6219 63.2319 24.1552 63.4377C24.6791 63.6341 25.39 63.7745 25.7549 63.7464C26.1385 63.7183 26.0168 63.5312 25.4742 63.3161C24.9223 63.1009 24.1739 62.9606 23.809 62.998Z" fill="#E1251B"/>
<path d="M28.0657 64.4106C27.6821 64.4293 27.7663 64.5135 28.2434 64.6071C28.7112 64.7006 29.3847 64.7568 29.7777 64.7474C30.1799 64.738 30.1332 64.6445 29.6654 64.5509C29.1789 64.448 28.4586 64.3825 28.0657 64.4013V64.4106Z" fill="#E1251B"/>
<path d="M33.2484 64.9719C33.0426 64.9719 32.7713 64.9719 32.5 64.9719C32.2287 64.9719 31.9574 64.9719 31.7516 64.9719C31.5177 64.9719 31.4615 64.9439 31.5083 64.9813C31.8358 64.9906 32.1725 65 32.5 65C32.8274 65 33.1642 65 33.4916 64.9813C33.5478 64.9439 33.4823 64.9813 33.2484 64.9719Z" fill="#E1251B"/>
<path d="M19.4775 57.6655C19.964 57.3849 19.7395 56.6739 18.9724 56.0658C18.1959 55.4483 17.1949 55.2145 16.7458 55.5325C16.3248 55.8319 16.5774 56.5429 17.3165 57.1229C18.0462 57.6936 19.0098 57.9368 19.4775 57.6655Z" fill="#E1251B"/>
<path d="M24.3049 59.7704C23.5471 59.312 22.4993 59.1343 21.9754 59.3775C21.4796 59.6114 21.6854 60.1446 22.4151 60.575C23.1355 60.996 24.1271 61.1644 24.6417 60.9679C25.1843 60.7527 25.0439 60.2195 24.2955 59.7704H24.3049Z" fill="#E1251B"/>
<path d="M29.2725 62.3525C28.5896 62.0625 27.5605 61.9689 26.9992 62.156C26.4566 62.3338 26.5782 62.6986 27.2424 62.9699C27.8973 63.2319 28.8515 63.3161 29.4128 63.157C29.9929 62.998 29.9367 62.6331 29.2725 62.3525Z" fill="#E1251B"/>
<path d="M32.5 63.709C32.1258 63.709 31.761 63.7464 31.471 63.8212C30.9096 63.9616 30.9377 64.1767 31.5084 64.3077C31.7797 64.3638 32.1352 64.4013 32.4907 64.3919C32.8462 64.3919 33.2017 64.3638 33.473 64.3077C34.0436 64.1861 34.0717 63.9616 33.5104 63.8212C33.2297 63.7464 32.8555 63.709 32.4813 63.709H32.5Z" fill="#E1251B"/>
<path d="M23.5938 55.3454C24.361 54.8122 24.2113 53.727 23.2383 52.9318C22.256 52.1179 20.8621 51.9495 20.1418 52.5388C19.4588 53.1002 19.6647 54.1667 20.6095 54.9244C21.5357 55.6635 22.8641 55.8506 23.5938 55.3454Z" fill="#E1251B"/>
<path d="M29.0854 59.0782C29.89 58.6291 29.8338 57.7871 28.9357 57.1791C28.0096 56.5616 26.6063 56.4587 25.8204 56.9545C25.072 57.4316 25.2123 58.2736 26.1198 58.8443C26.9992 59.3962 28.3276 59.4991 29.0948 59.0688L29.0854 59.0782Z" fill="#E1251B"/>
<path d="M28.8327 51.7343C29.8899 50.883 29.8431 49.3768 28.7017 48.3758C27.5417 47.3561 25.7549 47.2719 24.7164 48.198C23.7248 49.0868 23.8557 50.5743 24.9877 51.5285C26.101 52.464 27.813 52.5576 28.8327 51.7437V51.7343Z" fill="#E1251B"/>
<path d="M32.5 56.5055C33.1268 56.4868 33.7536 56.3184 34.24 55.9816C35.2972 55.2425 35.3346 54.0076 34.3149 53.2218C33.8097 52.8382 33.1642 52.6324 32.5093 52.6137C31.8545 52.6418 31.1996 52.8382 30.7038 53.2218C29.684 54.0076 29.7215 55.2425 30.7786 55.9816C31.2651 56.3184 31.8825 56.4961 32.5187 56.5055H32.5Z" fill="#E1251B"/>
<path d="M23.8371 36.2234C22.6116 37.4957 22.6584 39.5725 23.9494 40.8729C23.9775 40.901 24.0055 40.9291 24.0336 40.9571C24.0617 40.9852 24.0897 41.0132 24.1178 41.0413C25.4182 42.3323 27.495 42.3885 28.7673 41.1536C30.0677 39.8906 30.049 37.7857 28.7112 36.4573C28.6831 36.4292 28.6457 36.4011 28.6176 36.3731C28.5896 36.345 28.5615 36.3076 28.5334 36.2795C27.205 34.9511 25.0907 34.9324 23.8371 36.2234Z" fill="#E1251B"/>
<path d="M32.5 41.6775C31.6954 41.7149 30.9002 42.0236 30.2828 42.6036C29.0105 43.8198 29.0385 45.7563 30.3389 46.9257C30.9376 47.4683 31.7141 47.749 32.5 47.7771C33.2858 47.749 34.0529 47.4683 34.661 46.9257C35.9614 45.7563 35.9895 43.8198 34.7171 42.6036C34.0997 42.0236 33.3045 41.7149 32.5 41.6775Z" fill="#E1251B"/>
<path d="M32.4626 36.3169C34.55 36.3169 36.2421 34.6248 36.2421 32.5374C36.2421 30.45 34.55 28.7579 32.4626 28.7579C30.3752 28.7579 28.6831 30.45 28.6831 32.5374C28.6831 34.6248 30.3752 36.3169 32.4626 36.3169Z" fill="#E1251B"/>
<path d="M75.8521 41.5184C76.5911 41.3968 77.5453 41.3313 78.5557 41.3313C80.2958 41.3313 81.4932 41.6868 82.3446 42.3885C83.2427 43.1088 83.7946 44.194 83.7946 45.7563C83.7946 47.3187 83.2333 48.6097 82.3446 49.3955C81.4184 50.2188 79.9496 50.6398 78.1441 50.6398C77.1524 50.6398 76.404 50.5836 75.8614 50.5181V41.5184H75.8521ZM77.5453 49.2739C77.7792 49.3113 78.1347 49.3113 78.4809 49.3113C80.6887 49.3207 81.9891 48.1326 81.9891 45.8125C81.9984 43.7917 80.8197 42.6317 78.696 42.6317C78.1628 42.6317 77.7699 42.6691 77.536 42.7253V49.2645L77.5453 49.2739Z" fill="#E1251B"/>
<path d="M86.7509 50.5462V43.9321H88.4629V50.5462H86.7509Z" fill="#E1251B"/>
<path d="M91.7185 49.012C92.1021 49.2458 92.8318 49.4891 93.4399 49.4891C94.1883 49.4891 94.5157 49.1897 94.5157 48.7594C94.5157 48.329 94.2444 48.0764 93.4118 47.7958C92.1021 47.3467 91.5689 46.6451 91.5689 45.8686C91.5689 44.6992 92.5418 43.7917 94.1041 43.7917C94.8432 43.7917 95.498 43.9789 95.8816 44.1847L95.5542 45.3634C95.2642 45.2044 94.7309 44.9799 94.1322 44.9799C93.5335 44.9799 93.1967 45.2605 93.1967 45.6721C93.1967 46.0838 93.5147 46.2989 94.3661 46.5983C95.5822 47.0287 96.1529 47.6461 96.1529 48.619C96.1529 49.592 95.4887 50.3872 94.2257 50.6117L93.8983 51.1824C94.4035 51.2385 94.8806 51.6033 94.8806 52.146C94.8806 52.9879 94.1509 53.2873 93.3089 53.2873C92.9254 53.2873 92.5324 53.1937 92.2892 53.0253L92.5231 52.3424C92.757 52.4827 93.047 52.5576 93.2809 52.5576C93.5428 52.5576 93.8141 52.4453 93.8048 52.1647C93.8048 51.8653 93.4493 51.6875 92.7476 51.6314L93.2528 50.6678H93.2247C92.7663 50.6678 92.0086 50.5462 91.3911 50.2094L91.7185 49.0026V49.012Z" fill="#E1251B"/>
<path d="M104.722 42.8001H102.075V41.4062H109.082V42.8001H106.406V50.5556H104.713V42.8001H104.722Z" fill="#E1251B"/>
<path d="M113.189 42.0891C113.189 42.5943 112.814 42.9872 112.225 42.9872C111.636 42.9872 111.29 42.5943 111.29 42.0891C111.29 41.5839 111.673 41.1816 112.244 41.1816C112.814 41.1816 113.179 41.5746 113.198 42.0891H113.189ZM111.383 50.5462V43.9321H113.095V50.5462H111.383Z" fill="#E1251B"/>
<path d="M121.356 50.3497C121 50.5088 120.299 50.6865 119.457 50.6865C117.361 50.6865 115.995 49.3675 115.995 47.3187C115.995 45.2699 117.37 43.7917 119.728 43.7917C120.345 43.7917 120.982 43.9227 121.365 44.1005L121.066 45.3447C120.794 45.2231 120.392 45.0828 119.784 45.0828C118.493 45.0828 117.717 46.0183 117.735 47.2251C117.735 48.5816 118.633 49.3581 119.784 49.3581C120.373 49.3581 120.794 49.2365 121.122 49.0961L121.356 50.331V50.3497Z" fill="#E1251B"/>
<path d="M127.904 50.5462L127.792 49.8165H127.755C127.343 50.331 126.641 50.6959 125.771 50.6959C124.424 50.6959 123.667 49.7323 123.667 48.7313C123.667 47.0567 125.173 46.2241 127.652 46.2335V46.1212C127.652 45.6909 127.474 44.9705 126.286 44.9705C125.622 44.9705 124.939 45.1763 124.48 45.457L124.153 44.3718C124.649 44.0724 125.519 43.7917 126.576 43.7917C128.728 43.7917 129.345 45.1389 129.345 46.5702V48.9558C129.345 49.5546 129.373 50.1346 129.439 50.5462H127.914H127.904ZM127.68 47.3187C126.482 47.2906 125.341 47.5525 125.341 48.5536C125.341 49.2084 125.771 49.5078 126.305 49.5078C126.978 49.5078 127.474 49.0774 127.624 48.6003C127.661 48.4787 127.68 48.3384 127.68 48.2355V47.328V47.3187Z" fill="#E1251B"/>
<path d="M132.648 46.0744C132.648 45.1763 132.638 44.5402 132.591 43.9414H134.07L134.126 45.2044H134.182C134.509 44.2689 135.295 43.7917 136.015 43.7917C136.184 43.7917 136.277 43.8011 136.418 43.8292V45.4008C136.277 45.3728 136.128 45.3447 135.922 45.3447C135.108 45.3447 134.556 45.8592 134.406 46.6077C134.378 46.7573 134.35 46.9351 134.35 47.1222V50.5462H132.657V46.0651L132.648 46.0744Z" fill="#E1251B"/>
<path d="M140.141 47.7116C140.178 48.909 141.133 49.4236 142.209 49.4236C142.994 49.4236 143.556 49.3113 144.07 49.1242L144.323 50.2749C143.743 50.5088 142.948 50.6772 141.984 50.6772C139.804 50.6772 138.523 49.3581 138.523 47.3374C138.523 45.5037 139.655 43.7824 141.797 43.7824C143.939 43.7824 144.688 45.5505 144.688 47.0006C144.688 47.3093 144.66 47.5619 144.632 47.7022H140.141V47.7116ZM143.088 46.5422C143.097 45.9341 142.826 44.9237 141.694 44.9237C140.646 44.9237 140.207 45.8592 140.141 46.5422H143.088Z" fill="#E1251B"/>
<path d="M149.506 42.0517V43.9414H151.115V45.1857H149.506V48.1045C149.506 48.909 149.73 49.33 150.376 49.33C150.666 49.33 150.881 49.2926 151.04 49.2458L151.068 50.5181C150.825 50.6117 150.376 50.6772 149.842 50.6772C149.225 50.6772 148.701 50.4714 148.383 50.1346C148.027 49.751 147.859 49.1616 147.859 48.2916V45.1857H146.896V43.9414H147.859V42.4446L149.515 42.0517H149.506Z" fill="#E1251B"/>
<path d="M160.217 47.9548L159.422 50.5462H157.673L160.648 41.3968H162.809L165.821 50.5462H164.006L163.164 47.9548H160.217ZM162.874 46.6919L162.145 44.4373C161.967 43.8853 161.817 43.2585 161.677 42.7253H161.649C161.508 43.2585 161.377 43.8947 161.209 44.4373L160.489 46.6919H162.874Z" fill="#E1251B"/>
<path d="M168.497 45.906C168.497 45.1483 168.487 44.5027 168.441 43.9414H169.928L170.012 44.9331H170.05C170.34 44.4185 171.069 43.7917 172.183 43.7917C173.352 43.7917 174.568 44.5402 174.568 46.6264V50.5462H172.875V46.8135C172.875 45.8592 172.519 45.1483 171.593 45.1483C170.92 45.1483 170.452 45.6254 170.274 46.1212C170.218 46.2709 170.209 46.4767 170.209 46.6638V50.5462H168.497V45.906Z" fill="#E1251B"/>
<path d="M184.279 47.1877C184.279 49.62 182.539 50.7052 180.836 50.7052C178.937 50.7052 177.478 49.4142 177.478 47.2999C177.478 45.1857 178.928 43.8011 180.948 43.8011C182.969 43.8011 184.279 45.1857 184.279 47.197V47.1877ZM179.227 47.2532C179.227 48.5255 179.863 49.4891 180.892 49.4891C181.856 49.4891 182.529 48.5535 182.529 47.2251C182.529 46.196 182.062 45.0079 180.902 45.0079C179.742 45.0079 179.218 46.1492 179.218 47.2438L179.227 47.2532Z" fill="#E1251B"/>
<path d="M187.188 45.906C187.188 45.1483 187.179 44.5027 187.132 43.9414H188.62L188.704 44.9331H188.741C189.031 44.4185 189.761 43.7917 190.874 43.7917C192.044 43.7917 193.26 44.5402 193.26 46.6264V50.5462H191.567V46.8135C191.567 45.8592 191.211 45.1483 190.285 45.1483C189.611 45.1483 189.144 45.6254 188.966 46.1212C188.91 46.2709 188.9 46.4767 188.9 46.6638V50.5462H187.188V45.906Z" fill="#E1251B"/>
<path d="M198.387 42.0891C198.387 42.5943 198.012 42.9872 197.423 42.9872C196.834 42.9872 196.487 42.5943 196.487 42.0891C196.487 41.5839 196.871 41.1816 197.442 41.1816C198.012 41.1816 198.377 41.5746 198.396 42.0891H198.387ZM196.581 50.5462V43.9321H198.293V50.5462H196.581Z" fill="#E1251B"/>
<path d="M201.633 45.906C201.633 45.1483 201.623 44.5027 201.577 43.9414H203.036L203.102 44.9144H203.139C203.466 44.3998 204.075 43.7917 205.207 43.7917C206.086 43.7917 206.778 44.2782 207.068 45.0173H207.096C207.33 44.6524 207.601 44.3811 207.92 44.194C208.294 43.9321 208.715 43.8011 209.267 43.8011C210.38 43.8011 211.512 44.5495 211.512 46.6638V50.5649H209.856V46.9164C209.856 45.8125 209.473 45.167 208.659 45.167C208.079 45.167 207.648 45.5786 207.471 46.0464C207.433 46.2054 207.386 46.4112 207.386 46.5983V50.5649H205.73V46.7386C205.73 45.8125 205.356 45.167 204.57 45.167C203.934 45.167 203.513 45.6534 203.354 46.1212C203.289 46.2802 203.261 46.4767 203.261 46.6638V50.5743H201.605V45.9341L201.633 45.906Z" fill="#E1251B"/>
<path d="M219.23 48.7313C219.782 49.04 220.605 49.3113 221.475 49.3113C222.56 49.3113 223.169 48.8061 223.169 48.0577C223.169 47.3654 222.701 46.9632 221.513 46.5422C219.988 45.9996 219.005 45.195 219.005 43.8853C219.005 42.3885 220.268 41.2471 222.28 41.2471C223.281 41.2471 224.029 41.4623 224.506 41.7055L224.095 43.0527C223.767 42.8749 223.112 42.6223 222.252 42.6223C221.176 42.6223 220.708 43.193 220.708 43.7169C220.708 44.4185 221.241 44.746 222.486 45.2231C224.095 45.8218 224.881 46.617 224.881 47.9361C224.881 49.1804 224.067 50.2936 222.336 50.593L222.008 51.173C222.532 51.2385 222.991 51.6033 222.991 52.1272C222.991 52.9692 222.233 53.2779 221.438 53.2779C221.026 53.2779 220.643 53.1657 220.39 53.016L220.633 52.3331C220.858 52.4547 221.129 52.5482 221.382 52.5482C221.653 52.5482 221.915 52.4266 221.915 52.1647C221.915 51.8653 221.541 51.6875 220.839 51.6221L221.363 50.6585H221.297C220.502 50.6585 219.436 50.4152 218.856 50.0878L219.23 48.7032V48.7313Z" fill="#E1251B"/>
<path d="M229.67 42.0891C229.67 42.5943 229.296 42.9872 228.707 42.9872C228.117 42.9872 227.771 42.5943 227.771 42.0891C227.771 41.5839 228.155 41.1816 228.726 41.1816C229.296 41.1816 229.661 41.5746 229.68 42.0891H229.67ZM227.865 50.5462V43.9321H229.577V50.5462H227.865Z" fill="#E1251B"/>
<path d="M232.907 46.0744C232.907 45.1763 232.898 44.5402 232.851 43.9414H234.329L234.385 45.2044H234.442C234.769 44.2689 235.555 43.7917 236.275 43.7917C236.444 43.7917 236.537 43.8011 236.677 43.8292V45.4008C236.537 45.3728 236.387 45.3447 236.182 45.3447C235.368 45.3447 234.816 45.8592 234.666 46.6077C234.638 46.7573 234.61 46.9351 234.61 47.1222V50.5462H232.917V46.0651L232.907 46.0744Z" fill="#E1251B"/>
<path d="M241.028 46.8415H241.056C241.224 46.5796 241.411 46.2989 241.589 46.0651L243.217 43.9321H245.256L242.777 46.6357L245.612 50.5462H243.535L241.608 47.6274L241.028 48.2916V50.5462H239.334V40.9103H241.028V46.8415Z" fill="#E1251B"/>
<path d="M248.97 47.7116C249.008 48.909 249.962 49.4236 251.038 49.4236C251.824 49.4236 252.385 49.3113 252.899 49.1242L253.152 50.2749C252.572 50.5088 251.777 50.6772 250.813 50.6772C248.633 50.6772 247.352 49.3581 247.352 47.3374C247.352 45.5037 248.484 43.7824 250.626 43.7824C252.768 43.7824 253.517 45.5505 253.517 47.0006C253.517 47.3093 253.489 47.5619 253.461 47.7022H248.97V47.7116ZM251.917 46.5422C251.926 45.9341 251.655 44.9237 250.523 44.9237C249.475 44.9237 249.036 45.8592 248.97 46.5422H251.917Z" fill="#E1251B"/>
<path d="M258.335 42.0517V43.9414H259.944V45.1857H258.335V48.1045C258.335 48.909 258.559 49.33 259.205 49.33C259.495 49.33 259.71 49.2926 259.869 49.2458L259.897 50.5181C259.654 50.6117 259.205 50.6772 258.672 50.6772C258.054 50.6772 257.53 50.4714 257.212 50.1346C256.857 49.751 256.688 49.1616 256.688 48.2916V45.1857H255.725V43.9414H256.688V42.4446L258.344 42.0517H258.335Z" fill="#E1251B"/>
<path d="M264.547 42.0891C264.547 42.5943 264.172 42.9872 263.583 42.9872C262.994 42.9872 262.648 42.5943 262.648 42.0891C262.648 41.5839 263.031 41.1816 263.602 41.1816C264.172 41.1816 264.537 41.5746 264.556 42.0891H264.547ZM262.741 50.5462V43.9321H264.453V50.5462H262.741Z" fill="#E1251B"/>
<path d="M278.673 19.4588C278.673 22.2186 276.437 24.389 273.574 24.389C270.712 24.389 268.448 22.2093 268.448 19.4588C268.448 16.7084 270.749 14.5848 273.574 14.5848C276.4 14.5848 278.673 16.7645 278.673 19.4588ZM269.87 19.4869C269.87 21.5731 271.46 23.2571 273.584 23.2571C275.707 23.2571 277.26 21.5731 277.26 19.4869C277.26 17.4007 275.698 15.7168 273.584 15.7168C271.469 15.7168 269.87 17.4007 269.87 19.4869ZM272.873 21.8912H271.582V17.2229C271.965 17.1668 272.676 17.0826 273.556 17.0826C274.557 17.0826 274.996 17.2229 275.324 17.4288C275.651 17.6346 275.857 17.9807 275.857 18.4391C275.857 18.9349 275.417 19.3372 274.8 19.515V19.5711C275.305 19.7489 275.567 20.1231 275.717 20.7592C275.866 21.4515 275.979 21.7134 276.072 21.8912H274.632C274.482 21.7134 274.398 21.3112 274.276 20.8153C274.192 20.3195 273.921 20.1231 273.397 20.1231H272.891V21.8912H272.873ZM272.901 19.225H273.406C273.967 19.225 274.379 19.0191 274.379 18.6169C274.379 18.2146 274.052 17.9807 273.462 17.9807C273.228 17.9807 273.05 18.0088 272.901 18.0088V19.225Z" fill="#E1251B"/>
</g>
<defs>
<clipPath id="clip0_7_3029">
<rect width="278.673" height="65" fill="white"/>
</clipPath>
</defs>
</svg>
